<svg xmlns="http://www.w3.org/2000/svg" viewBox="0 0 560 560" fill="none" shape-rendering="auto" width="256" height="256"><mask id="viewboxMask"><rect width="560" height="560" rx="0" ry="0" x="0" y="0" fill="#fff" /></mask><g mask="url(#viewboxMask)"><rect fill="#fef3c7" width="560" height="560" x="0" y="0" /><g transform="translate(136 328)"><path d="M175 75.5c8.2-5 11.5-.1 14.5 5.4-11.4 17-50 20.1-60.7 3.4 15-5.2 31.3-1.5 46.1-8.8Z" fill="#000"/></g><g transform="translate(246 125)"><path d="m72.7 176.1.8 3.5c7.2 25.1-.3 33.5-27 30.2-5-.7-9.5-2.3-9.9-8-.5-5.9 4.6-6.1 8.8-7 4.6-.8 9-2 15.3-3.4a154 154 0 0 1-8.4-36.6c-2-15.8.7-30.4 5.8-45 2-5.7 5.6-10.6 12-7.9 5.6 2.4 3.2 8.1 1.4 12.4-8.6 20.4-7 40.7 1.2 61.8Z" fill="#000"/></g><g transform="translate(-45 137)"><path d="M407.4 122.5c13 .3 25.4 1.1 37.6 2.5 3 .4 5 3.3 5 6.7 0 3.3-1.7 5.6-4.7 7-11.2 4.8-22 8.2-33.7.2-6.5-4.5-9-8.7-4.2-16.4ZM247.6 117c7 0 7.8 3.8 7 8.5-2 10.2-20 22.4-30.4 20.5-5.9-1-10.5-4-10.7-10.5-.2-6.7 4.8-8.2 10.3-8.4 9-.3 15.8-5.2 23.8-10ZM215.1 76.6c5-12 9-29.4 24.1-22.5 20.7 9.4 13.9 30.7 9.7 47.4-1.6 6.3-14.5 15.9-18.3 14.3-16.3-6.8-19.2-21.7-15.5-39.2ZM442 113.4c-8.6 7.5-17 7.6-22.2-1.5-9-16-8.6-32.8 3.3-47.2 2.5-3 13.8-3.6 16.3-1 14 15 14.6 31.8 2.6 49.7Z" fill="#000"/></g><g transform="translate(-45 137)"></g><g transform="translate(119 114)"><path d="M15 39C23.8 24.6 37 20.4 51.9 19c23.2-2.3 44 8.5 65.9 12.8 8 1.5 6.8 7.5 1.4 10.7-9.4 5.7-19.5 11-31.2 7-22.5-7.6-45.1-12-68.6-4.1-6.2 2-5-2-4.2-6.3ZM255 29c15-2.6 28.7-5.3 42.2 1.5 10.8 5.5 15 14 12.9 25.5-5 3.1-7.5-.4-10.6-2.5-11.6-7.9-23.9-10-37.3-4.6-9.3 3.7-19.2 2.4-29 2.4-4.7 0-8.4-1.8-8.7-7-.4-5.5.9-10.8 6.9-12 7.3-1.7 15-2.2 23.7-3.3Z" fill="#000"/></g></g></svg>