<svg xmlns="http://www.w3.org/2000/svg" viewBox="0 0 560 560" fill="none" shape-rendering="auto" width="256" height="256"><mask id="viewboxMask"><rect width="560" height="560" rx="0" ry="0" x="0" y="0" fill="#fff" /></mask><g mask="url(#viewboxMask)"><rect fill="#ffe4e6" width="560" height="560" x="0" y="0" /><g transform="translate(136 328)"><path d="M104.4 64.4c-14.7 4.9-15.7 8.4-8.6 22a59 59 0 0 0 17 18.4c29.7 23.5 71.7 13.1 91.8-12.8 6.2-8 6.6-19.1 1-27.6-5.4-8.1-13.8-3.4-20.8-.7-4.5 1.8-9.1 1.5-13.7 2-21.7 2.6-43-5-66.7-1.3Z" fill="#fff"/><path fill-rule="evenodd" clip-rule="evenodd" d="M83.3 85.7c10 24.5 30.3 35.6 54.6 43.5a87.6 87.6 0 0 0 75.5-28c9.3-9.9 11.5-33.9 4-44.3-6.7-9.2-17.8-10.9-34-4.4a48 48 0 0 1-24.8 3.3l-6.2-1c-16.8-2.2-33.5-4.6-50.7-1.5-17.4 3.2-25.1 15.9-18.4 32.4Zm12.5.6c-7.1-13.5-6-17 8.6-22 12.5-1.9 24.4-.7 36 .5 10.3 1 20.4 2.1 30.7 1 1.3-.3 2.7-.3 4.1-.4a30.3 30.3 0 0 0 11.9-2.6c6.5-2.7 13.7-5.7 18.6 1.6a23.7 23.7 0 0 1-1.1 27.6c-20.1 26-62.1 36.3-91.8 12.8a59 59 0 0 1-17-18.5Z" fill="#000"/></g><g transform="translate(246 125)"><path d="M45.4 194.6c-5 .2-8.7-.4-12-2.9-2.8-2-3.2-4.8-2.6-7.9.5-3.3 3.2-3.8 5.8-3.6 14.1.7 28-.5 41.1-6.4 3.2-1.5 6-.2 7.7 2.6 1.7 3.1 2 6.3-.8 9.4-5 5.8-11.2 9-19 8.8H45.5Z" fill="#000"/></g><g transform="translate(-45 137)"><path d="M215.1 76.6c5-12 9-29.4 24.1-22.5 20.7 9.4 13.9 30.7 9.7 47.4-1.6 6.3-14.5 15.9-18.3 14.3-16.3-6.8-19.2-21.7-15.5-39.2ZM442 113.4c-8.6 7.5-17 7.6-22.2-1.5-9-16-8.6-32.8 3.3-47.2 2.5-3 13.8-3.6 16.3-1 14 15 14.6 31.8 2.6 49.7Z" fill="#000"/></g><g transform="translate(-45 137)"></g><g transform="translate(119 114)"><path d="M56.8 30.9c9.5-10.6 21.8-16.2 31.6-25C93 1.8 98 3 101.8 7.5c3.8 4.3 7.3 8.3 2.7 14.5a83 83 0 0 1-42.7 28.3C47.4 55 32 56.5 17 59.3c-4.5.9-10.2 3.3-11.5-3.6-1.2-6.6 3.2-10 9.5-11.2 14.2-2.8 28.4-5.2 41.8-13.6ZM289.9 29c11.3 2 18 11 27.8 14.2 3.8 1.2 8.4 4.7 6.6 9.5-2.1 5.8-8 4.3-12.2 3a450.2 450.2 0 0 1-39.2-14.5c-12.8-5.6-25.1-12.4-37.4-19-6-3.2-11.6-7.8-7.4-15.2 4.2-7.3 11-9.5 18.3-3.7C259.4 13.8 275 19.8 290 29Z" fill="#000"/></g></g></svg>