<svg xmlns="http://www.w3.org/2000/svg" viewBox="0 0 560 560" fill="none" shape-rendering="auto" width="256" height="256"><mask id="viewboxMask"><rect width="560" height="560" rx="0" ry="0" x="0" y="0" fill="#fff" /></mask><g mask="url(#viewboxMask)"><rect fill="#e0e7ff" width="560" height="560" x="0" y="0" /><g transform="translate(136 328)"><path d="M99.3 109c-12.6 6.6-16.2-1.7-20-10.4-3.3-7.8-.8-18.1-13.5-21.8-6-1.7-.7-10.5 2.2-15.4 2.4-4.2 6.9-6.4 10.6-2.4 15.8 17.4 37.8 16.7 58 20C160 82.8 182 73.9 204 67.6c4.4-1.2 9.2-5.2 13-1 4 4.6 4.9 11.2 2 16.7a51.8 51.8 0 0 1-19.5 22.8c-4 2.4-8 4-11.6.1-6.4-6.7-11.1-5.7-18 .4-12 10.6-19.3 9.1-31.1-3.6-4-1.1-4.8 2.7-7 4.4-7.6 5.7-15.7 7.9-22.5-.3-4.8-5.7-6.7-2.7-9.9 1.9Z" fill="#000"/></g><g transform="translate(246 125)"><path d="M7.4 185c5.4-8.7 22.6-12.2 32.1-7.3 6.6 3.4 13 7.6 20 1.7 6.5-5.6 4.6-12.2 1.5-18.7-1.6-3.2-.8-5.7 2.2-7.5 3-1.9 5.5-1.1 8.2.8a20.1 20.1 0 0 1 8 21.5c-1.6 7.3-3.8 16-12.7 19-4 1.4-8.8 3.5-12.3 2.4-15.4-4.7-33.8 3.4-47-12Z" fill="#000"/></g><g transform="translate(-45 137)"><path d="M419.6 111c-4.2-9.5-9.9-15.2-19.8-15.7-6-.3-7-5.1-8.9-9.8 2-1.5 3.5-3.7 5.3-3.8 21.1-1.7 42.4-1.8 63.5-.1 6 .4 9.3 8 3.2 10.4-10 4-12.5 13.2-18.5 19.8-8.2 9-15.2 9.1-24.8-.8ZM228.6 81.4c12.2.7 23.1 1 34 2 3.6.3 8 1.8 8 6.7 0 5.6-4.6 5.2-8.3 5.1-6.3 0-9.7 2.7-12.5 8.6-3.4 7.4-6.9 15.3-18 14.8-10.5-.5-15.1-7.2-18.1-15.2-2.2-5.7-5-8.4-11-8.2-3.4.1-7.1-.2-7.5-4.9-.4-5 3-6 7-7.2a67.9 67.9 0 0 1 26.4-1.7Z" fill="#000"/></g><g transform="translate(-45 137)"><path d="M266 18.1A80.2 80.2 0 0 1 301 62.8c15.8-3 30.7-5.8 46.4 2.2a97.5 97.5 0 0 1 19.8-34.7C382.8 14 418 2 443.5 10.5c26.2 8.8 44.9 26.2 52.7 51.2a75.5 75.5 0 0 1-11.3 67.8c-35.8 51-110.3 37.5-132.4-14-3.6-8.2-5.7-16.9-6.3-25.8-.6-10.5-5.3-15.8-15-17.3-11.9-1.8-21.2 1.8-25.4 13.9-3.3 9.1-3.2 19-7.4 28.2-13.3 29-37.9 47.4-71.8 47.1-28.5-.2-61.4-18-69-48.8-8.4-34-35.5-41.3-62.4-50.6-22.8-7.9-45.5-16-68.2-24-4.7-1.7-7.3-5.4-5.5-10 2.2-5.7 6.8-3.4 10.8-2C66.4 38.8 100.7 51 134.7 63.8c11.8 4.4 18.5-3.2 22.6-10.7 23.3-42.4 58.4-55.5 103-37.2 1.7.6 3.3 1.2 5.7 2.3Z" fill="#000"/></g><g transform="translate(119 114)"><path d="M131.2 43.2c-5.6 16.8-6.6 15.4-23 11.6-26.2-6-52.7-19.2-80.3-4.3-2 1.1-5 1-7.6.8-3.6-.2-8.2 1.3-10.1-3.3-2.1-5 1.5-8.3 5.3-10.3C35.2 27.7 53 13.4 77.9 16c12.8 1.3 26-2.8 39.3-2.4 18.8.7 22.4 5.7 16 23.9l-2 5.8ZM298.7 21.8c9.6 6.6 12.5 16.8 18.3 25a7 7 0 0 1-.6 9.4c-2.4 2.7-5.4 2.8-8.1 1.2-19.1-11-38.9-6.4-58-1.2-10.2 2.7-14.6-.8-17.2-9.2-1.7-5.7-2.9-11.5-3.6-17.4-1.3-9.8 6.9-11.9 13-12.2 18.5-.9 37.4-4.5 56.2 4.4Z" fill="#000"/></g></g></svg>